<svg width="730" height="141" viewBox="0 0 730 141" fill="none" xmlns="http://www.w3.org/2000/svg">
    <g clip-path="url(#clip0_605_25413)" filter="url(#filter0_d_605_25413)">
    <path d="M39.3891 7.23828H1.26367V108.195H39.3891C69.1381 108.195 90.6545 86.995 90.6545 57.7168C90.6545 28.4386 69.1381 7.23828 39.3891 7.23828ZM38.9491 88.0005H23.0678V27.5767H38.9491C56.2858 27.5767 68.2666 39.8288 68.2666 57.7168C68.2666 75.309 56.2858 88.0005 38.9491 88.0005Z" fill="#EB5117"/>
    <path d="M170.361 30.3125L168.195 37.6638C161.409 31.7574 152.601 28.1494 142.49 28.1494C119.096 28.1494 101.615 45.7417 101.615 69.2487C101.615 92.7642 119.096 110.5 142.49 110.5C152.458 110.5 161.122 107.036 167.764 101.129L169.642 108.193H186.107V30.3125H170.361ZM144.225 90.6011C131.948 90.6011 122.996 81.3656 122.996 69.2487C122.996 56.9967 131.948 47.9048 144.225 47.9048C156.494 47.9048 165.454 56.9967 165.454 69.2487C165.454 81.5092 156.494 90.6011 144.225 90.6011Z" fill="#EB5117"/>
    <path d="M244.587 89.4527C236.786 89.4527 232.454 85.1264 232.454 77.6231V47.3394H253.683V30.3217H232.166V10.127H228.122L197.357 42.7259V47.3394H211.369V80.5129C211.369 97.6742 221.911 108.203 239.096 108.203H254.122V89.4527H244.587Z" fill="#EB5117"/>
    <path d="M332.096 30.3125L329.929 37.6638C323.144 31.7574 314.336 28.1494 304.225 28.1494C280.83 28.1494 263.35 45.7417 263.35 69.2487C263.35 92.7642 280.83 110.5 304.225 110.5C314.192 110.5 322.856 107.036 329.498 101.129L331.376 108.193H347.842V30.3125H332.096ZM305.959 90.6011C293.682 90.6011 284.731 81.3656 284.731 69.2487C284.731 56.9967 293.682 47.9048 305.959 47.9048C318.228 47.9048 327.188 56.9967 327.188 69.2487C327.188 81.5092 318.228 90.6011 305.959 90.6011Z" fill="#EB5117"/>
    <path d="M483.419 7.25586L463.916 74.3211L436.765 8.40502H429.404L402.828 74.4647L382.902 7.25586H359.795L391.566 108.213H411.06L433.017 51.6759L455.54 108.213H475.043L506.238 7.25586H483.419Z" fill="white"/>
    <path d="M518.502 19.9212H539.443V0.453125H518.502V19.9212ZM518.502 108.187H539.587V30.3059H518.502V108.187Z" fill="white"/>
    <path d="M604.135 28.5752C593.592 28.5752 584.2 33.0451 578.286 39.9654L574.242 30.3074H559.799V108.188H580.884V67.3762C580.884 54.8284 587.526 47.0378 598.356 47.0378C607.46 47.0378 611.936 52.6653 611.936 64.4864V108.188H633.021V61.0305C633.021 41.2666 621.894 28.5752 604.135 28.5752Z" fill="white"/>
    <path d="M715.327 30.3125L711.858 38.1032C705.072 31.9011 696.12 28.1494 686.009 28.1494C664.197 28.1494 647.156 45.4544 647.156 67.2293C647.156 89.1562 664.197 106.318 686.009 106.318C694.386 106.318 702.035 103.723 708.245 99.3973V102.279C708.245 113.677 699.437 120.598 688.751 120.598C680.95 120.598 672.725 116.99 670.263 109.926H649.322C652.935 127.661 667.953 138.477 689.038 138.477C713.736 138.477 728.898 123.623 728.898 99.2536V30.4562L715.327 30.3125ZM688.463 87.424C676.914 87.424 668.537 78.9152 668.537 67.3814C668.537 55.6954 676.914 47.1866 688.463 47.1866C700.021 47.1866 708.397 55.6954 708.397 67.3814C708.397 78.9152 700.021 87.424 688.463 87.424Z" fill="white"/>
    </g>
    <defs>
    <filter id="filter0_d_605_25413" x="-0.0632812" y="0" width="730.127" height="140.127" filterUnits="userSpaceOnUse" color-interpolation-filters="sRGB">
    <feFlood flood-opacity="0" result="BackgroundImageFix"/>
    <feColorMatrix in="SourceAlpha" type="matrix" values="0 0 0 0 0 0 0 0 0 0 0 0 0 0 0 0 0 0 127 0" result="hardAlpha"/>
    <feOffset dy="1.06328"/>
    <feGaussianBlur stdDeviation="0.531641"/>
    <feComposite in2="hardAlpha" operator="out"/>
    <feColorMatrix type="matrix" values="0 0 0 0 0 0 0 0 0 0 0 0 0 0 0 0 0 0 0.25 0"/>
    <feBlend mode="normal" in2="BackgroundImageFix" result="effect1_dropShadow_605_25413"/>
    <feBlend mode="normal" in="SourceGraphic" in2="effect1_dropShadow_605_25413" result="shape"/>
    </filter>
    <clipPath id="clip0_605_25413">
    <rect width="728" height="138" fill="white" transform="translate(1)"/>
    </clipPath>
    </defs>
    </svg>
    