<svg width="47" height="47" viewBox="0 0 47 47" fill="none" xmlns="http://www.w3.org/2000/svg">
    <path d="M42.2771 16.5498V8.79107C42.2771 5.73752 41.048 4.50842 37.9945 4.50842H30.2358C27.1822 4.50842 25.9531 5.73752 25.9531 8.79107V16.5498C25.9531 19.6033 27.1822 20.8324 30.2358 20.8324H37.9945C41.048 20.8324 42.2771 19.6033 42.2771 16.5498Z" stroke="#EB5117" stroke-width="2.88071" stroke-linecap="round" stroke-linejoin="round"/>
    <path d="M20.1912 17.0299V8.31095C20.1912 5.60309 18.9621 4.50842 15.9085 4.50842H8.14984C5.09629 4.50842 3.86719 5.60309 3.86719 8.31095V17.0107C3.86719 19.7378 5.09629 20.8132 8.14984 20.8132H15.9085C18.9621 20.8324 20.1912 19.7378 20.1912 17.0299Z" stroke="#EB5117" stroke-width="2.88071" stroke-linecap="round" stroke-linejoin="round"/>
    <path d="M20.1912 38.6352V30.8765C20.1912 27.823 18.9621 26.5939 15.9085 26.5939H8.14984C5.09629 26.5939 3.86719 27.823 3.86719 30.8765V38.6352C3.86719 41.6888 5.09629 42.9179 8.14984 42.9179H15.9085C18.9621 42.9179 20.1912 41.6888 20.1912 38.6352Z" stroke="#EB5117" stroke-width="2.88071" stroke-linecap="round" stroke-linejoin="round"/>
    <path d="M27.873 34.2758H39.3959" stroke="#EB5117" stroke-width="2.88071" stroke-linecap="round"/>
    <path d="M33.6348 40.0371V28.5143" stroke="#EB5117" stroke-width="2.88071" stroke-linecap="round"/>
    </svg>
    