<svg width="45" height="45" viewBox="0 0 45 45" fill="none" xmlns="http://www.w3.org/2000/svg">
    <path d="M4.33008 41.2211H40.9936" stroke="#F28D67" stroke-width="2.74976" stroke-miterlimit="10" stroke-linecap="round" stroke-linejoin="round"/>
    <path d="M6.07227 41.2213L6.16392 19.1682C6.16392 18.0499 6.69554 16.9868 7.57547 16.2902L20.4077 6.29935C21.7276 5.27277 23.5791 5.27277 24.9173 6.29935L37.7496 16.2718C38.6478 16.9684 39.1611 18.0316 39.1611 19.1682V41.2213" stroke="#F28D67" stroke-width="2.74976" stroke-miterlimit="10" stroke-linejoin="round"/>
    <path d="M24.4952 32.0552H20.8289C19.3073 32.0552 18.0791 33.2834 18.0791 34.8049V41.2211H27.245V34.8049C27.245 33.2834 26.0168 32.0552 24.4952 32.0552Z" stroke="#F28D67" stroke-width="2.74976" stroke-miterlimit="10" stroke-linejoin="round"/>
    <path d="M18.0796 26.0974H14.4133C13.405 26.0974 12.5801 25.2725 12.5801 24.2642V21.5145C12.5801 20.5062 13.405 19.6813 14.4133 19.6813H18.0796C19.0879 19.6813 19.9128 20.5062 19.9128 21.5145V24.2642C19.9128 25.2725 19.0879 26.0974 18.0796 26.0974Z" stroke="#F28D67" stroke-width="2.74976" stroke-miterlimit="10" stroke-linejoin="round"/>
    <path d="M30.9116 26.0974H27.2453C26.237 26.0974 25.4121 25.2725 25.4121 24.2642V21.5145C25.4121 20.5062 26.237 19.6813 27.2453 19.6813H30.9116C31.9199 19.6813 32.7448 20.5062 32.7448 21.5145V24.2642C32.7448 25.2725 31.9199 26.0974 30.9116 26.0974Z" stroke="#F28D67" stroke-width="2.74976" stroke-miterlimit="10" stroke-linejoin="round"/>
    <path d="M35.495 13.7235L35.44 8.22394H27.374" stroke="#F28D67" stroke-width="2.74976" stroke-miterlimit="10" stroke-linecap="round" stroke-linejoin="round"/>
    </svg>
    