<svg width="50" height="51" viewBox="0 0 50 51" fill="none" xmlns="http://www.w3.org/2000/svg">
    <path d="M37.3108 22.9913C36.4697 22.9913 35.7722 22.2938 35.7722 21.4527V17.3499C35.7722 10.8879 33.9465 6.57999 25.0023 6.57999C16.0581 6.57999 14.2324 10.8879 14.2324 17.3499V21.4527C14.2324 22.2938 13.5349 22.9913 12.6938 22.9913C11.8528 22.9913 11.1553 22.2938 11.1553 21.4527V17.3499C11.1553 11.4008 12.5913 3.50287 25.0023 3.50287C37.4133 3.50287 38.8493 11.4008 38.8493 17.3499V21.4527C38.8493 22.2938 38.1518 22.9913 37.3108 22.9913Z" fill="#EB5117"/>
    <path d="M35.2599 47.6082H14.7458C5.69909 47.6082 2.9502 44.8593 2.9502 35.8126V31.7097C2.9502 22.663 5.69909 19.9141 14.7458 19.9141H35.2599C44.3066 19.9141 47.0555 22.663 47.0555 31.7097V35.8126C47.0555 44.8593 44.3066 47.6082 35.2599 47.6082ZM14.7458 22.9912C7.40176 22.9912 6.02731 24.3862 6.02731 31.7097V35.8126C6.02731 43.1361 7.40176 44.5311 14.7458 44.5311H35.2599C42.604 44.5311 43.9784 43.1361 43.9784 35.8126V31.7097C43.9784 24.3862 42.604 22.9912 35.2599 22.9912H14.7458Z" fill="#EB5117"/>
    <path d="M16.7975 35.8124C16.5308 35.8124 16.2641 35.7508 16.018 35.6483C15.7513 35.5457 15.5462 35.4021 15.341 35.2174C14.9718 34.8277 14.7461 34.3148 14.7461 33.7609C14.7461 33.4943 14.8076 33.2276 14.9102 32.9814C15.0127 32.7147 15.1564 32.5096 15.341 32.3045C15.5462 32.1198 15.7513 31.9762 16.018 31.8736C16.7565 31.5454 17.6796 31.7301 18.254 32.3045C18.4386 32.5096 18.5823 32.7352 18.6848 32.9814C18.7874 33.2276 18.8489 33.4943 18.8489 33.7609C18.8489 34.2943 18.6232 34.8277 18.254 35.2174C17.8642 35.5867 17.3309 35.8124 16.7975 35.8124Z" fill="#EB5117"/>
    <path d="M25.0026 35.8124C24.4692 35.8124 23.9359 35.5867 23.5461 35.2175C23.1768 34.8277 22.9512 34.3149 22.9512 33.761C22.9512 33.4943 22.9922 33.2276 23.1153 32.9815C23.2178 32.7353 23.3615 32.5097 23.5461 32.3045C24.0179 31.8327 24.7359 31.607 25.3924 31.7506C25.536 31.7711 25.659 31.8121 25.7821 31.8737C25.9052 31.9147 26.0283 31.9763 26.1514 32.0584C26.2539 32.1199 26.3565 32.2225 26.4591 32.3045C26.6437 32.5097 26.7873 32.7353 26.8899 32.9815C26.9925 33.2276 27.054 33.4943 27.054 33.761C27.054 34.3149 26.8283 34.8277 26.4591 35.2175C26.3565 35.2995 26.2539 35.3816 26.1514 35.4636C26.0283 35.5457 25.9052 35.6073 25.7821 35.6483C25.659 35.7099 25.536 35.7509 25.3924 35.7714C25.2693 35.7919 25.1257 35.8124 25.0026 35.8124Z" fill="#EB5117"/>
    <path d="M33.2086 35.8124C32.6548 35.8124 32.1419 35.5867 31.7522 35.2175C31.5675 35.0123 31.4239 34.7867 31.3213 34.5405C31.2187 34.2944 31.1572 34.0277 31.1572 33.761C31.1572 33.2276 31.3829 32.6943 31.7522 32.3045C31.8547 32.2225 31.9573 32.1404 32.0599 32.0584C32.1829 31.9763 32.306 31.9147 32.4291 31.8737C32.5522 31.8121 32.6752 31.7711 32.7983 31.7506C33.4753 31.607 34.1728 31.8327 34.6651 32.3045C35.0344 32.6943 35.26 33.2071 35.26 33.761C35.26 34.0277 35.1985 34.2944 35.096 34.5405C34.9934 34.8072 34.8497 35.0123 34.6651 35.2175C34.2754 35.5867 33.742 35.8124 33.2086 35.8124Z" fill="#EB5117"/>
    </svg>
    